<svg xmlns="http://www.w3.org/2000/svg" xmlns:xlink="http://www.w3.org/1999/xlink" version="1.1" x="0px" y="0px" viewBox="0 0 32 40" style="enable-background:new 0 0 32 32;" xml:space="preserve"><g><polygon points="25.96002,6.72998 20.79999,1.58002 20.79999,6.72998  "/><path d="M26.14001,20.15997C25.69,19.64001,25.15002,19.19,24.53998,18.83997c-0.95996-0.57001-2.07996-0.88995-3.26996-0.88995   c-3.60004,0-6.53003,2.92999-6.53003,6.52997c0,1.19,0.32001,2.31,0.89001,3.27002   c0.39001,0.67999,0.90997,1.28998,1.52002,1.78998c1.12,0.91003,2.56,1.46002,4.12,1.46002   c3.58997,0,6.51996-2.92999,6.51996-6.52002C27.78998,22.82996,27.16998,21.32001,26.14001,20.15997z M23.45001,25.47998h-1.17999   v1.17999c0,0.54999-0.45001,1-1,1c-0.56,0-1-0.45001-1-1v-1.17999h-1.17999c-0.56,0-1-0.45001-1-1c0-0.56,0.44-1,1-1h1.17999   v-1.17999c0-0.56,0.44-1,1-1c0.54999,0,1,0.44,1,1v1.17999h1.17999c0.54999,0,1,0.44,1,1   C24.45001,25.02997,24,25.47998,23.45001,25.47998z"/><path d="M13.23999,24.47998c0-4.42999,3.60004-8.02997,8.03003-8.02997c1.15997,0,2.26996,0.25,3.26996,0.69995   c0.73004,0.33002,1.40002,0.76001,2,1.28003V8.72998h-6.73999c-0.54999,0-1-0.44995-1-1V1H5.21002c-0.55005,0-1,0.45001-1,1v26.75   c0,0.54999,0.44995,1,1,1h10.00995c-0.51996-0.59003-0.95996-1.27002-1.27997-2   C13.48999,26.75,13.23999,25.64001,13.23999,24.47998z"/></g><text x="0" y="47" fill="#000000" font-size="5px" font-weight="bold" font-family="'Helvetica Neue', Helvetica, Arial-Unicode, Arial, Sans-serif">Created by Barudak Lier</text><text x="0" y="52" fill="#000000" font-size="5px" font-weight="bold" font-family="'Helvetica Neue', Helvetica, Arial-Unicode, Arial, Sans-serif">from the Noun Project</text></svg>